<svg viewBox="0 0 705.23 649.23"><defs><style>.cls-1{fill:var(--body-bg-color);}.cls-2{fill:var(--card-bg-color);}.cls-3{fill:var(--color-action);}.cls-5,.cls-6{fill:none;stroke:#fed385;stroke-miterlimit:10;stroke-width:3px;}.cls-6{stroke-linecap:round;}</style></defs><title>holding-phone-colour</title><g id="Layer_2" data-name="Layer 2"><g id="Vector"><path class="cls-1" d="M497.44,15.78c82.39,11.67,185.76,56,204.53,121.3,18.78,65.47-47,151.75-109.62,220.78C529.75,427.05,470.37,479,397.62,514c-72.74,34.85-158.69,53-216.54,20.13C123.39,501.49,94,417.92,59.77,344.32c-34.34-73.76-73.59-137.71-55-182.54C23.4,117.12,99.87,91.57,157.39,75.5s95.92-22.84,146-36.54C353.3,25.08,414.88,4.11,497.44,15.78Z"></path><path class="cls-4" d="M235.25,35.51c-13.21,0-17.34,20.64-17.34,28.89,0,14,14.86,71.82,28.89,71.82s28.9-57,28.9-63.56S258.36,35.51,235.25,35.51Z"></path>
<rect class="cls-3" x="226.09" y="15.8" width="253.06" height="444.29" rx="25.35" ry="25.35" transform="translate(52.42 -63.45) rotate(11.1)"></rect><path class="cls-1" d="M449.19,30.59l-2.51,12.79a12.06,12.06,0,0,1-14.13,9.49l-85.62-16.8a12.07,12.07,0,0,1-9.49-14.13L340,9.15"></path>
<g id="UI">
	<rect class="cls-44" x="266.58" y="164.65" width="186.68" height="115.22"/>
	<rect x="308.1" y="292.69" width="103.64" height="6.1"/>
	<circle stroke="white" class="cls-3" cx="310" cy="400" r="34.03"/>
	<path style="transform: translate(-10px, -12px)" class="cls-1" d="M319.16,400.27l8,1.64,2.12,3.22,5.35,1.1a1.37,1.37,0,0,1,1.06,1.61h0l-3.85,18.71a1.35,1.35,0,0,1-1.61,1.06h0l-24.05-4.94a1.37,1.37,0,0,1-1.06-1.61h0L309,402.35a1.37,1.37,0,0,1,1.61-1.06l5.34,1.1Zm-.38,22.2a8.19,8.19,0,1,0-6.37-9.67,8.18,8.18,0,0,0,6.37,9.67Zm.55-2.67a5.46,5.46,0,1,1,6.44-4.25,5.46,5.46,0,0,1-6.44,4.25Z"/>
</g><line class="cls-1" x1="175.09" y1="386.56" x2="445.73" y2="439.67"></line><path class="cls-4" d="M219.57,147c-17.34,0-28.9,13.2-28.9,27.24,0,46.22,26.42,84.19,38,84.19,24.76,0,33.84-13.21,33.84-22.29C262.49,229.49,259.19,147,219.57,147Z"></path><path class="cls-4" d="M210.49,268.29c4.95,4.95,42.92,45.4,42.92,73.46,0,19-4.13,33.84-38.8,33.84-16.51,0-62.73-65.21-62.73-91.62,0-14.86,9.08-49.53,34.67-49.53,7.43,0,23.94,13.21,26.41,16.51a92.46,92.46,0,0,0,8.08,7.43C220,263.75,214.26,292,214.26,292"></path><path class="cls-6" d="M222.65,281.88s-11.75-14.83-19.18-21.43"></path><path class="cls-4" d="M204.32,434.35c-2.47,6.61-4.15,70.43,3.28,105.92-5,25.59-24.77,109-24.77,109H362l18.16-72.64S490.72,480,501.45,462.68,537.36,344.23,537,334.74c-.29-6.6-120.52-108.14-123.82-112.27s-61.36,54,35.22,120.9c-.83,8.25-.78,44.69-.78,44.69s-67.18,23.09-74,28.07-19.87,40.07-22.23,47.94C342.26,462.29,204.32,434.35,204.32,434.35Z"></path><path class="cls-6" d="M337.31,505.43c2.25-8.6,13.16-39.49,15.87-46.86"></path></g>
</g></svg>
