<?xml version="1.0" encoding="utf-8"?>
<!-- Generator: Adobe Illustrator 23.0.6, SVG Export Plug-In . SVG Version: 6.00 Build 0)  -->
<svg version="1.1" id="Layer_1" xmlns="http://www.w3.org/2000/svg" xmlns:xlink="http://www.w3.org/1999/xlink" x="0px" y="0px"
	 viewBox="0 0 181.4 124.7" style="enable-background:new 0 0 181.4 124.7;" xml:space="preserve">
<style type="text/css">
	.st0{fill-rule:evenodd;clip-rule:evenodd;fill:#06233D;}
	.st1{fill:#3897F0;}
	.st2{fill:#FFFFFF;}
</style>
<path class="st0" d="M175.4,0H6C2.7,0,0,2.6,0,5.8v88.8c0,3.2,2.7,5.8,6,5.8h123.9c0,0.1,0.1,0.1,0.1,0.2l12.7,12.4
	c0.3,0.3,1.1,0.3,1.5,0l12.7-12.4c0.1-0.1,0.1-0.1,0.1-0.2h18.5c3.3,0,6-2.6,6-5.8V5.8C181.4,2.6,178.8,0,175.4,0z"/>
<path class="st1" d="M150.3,69.2c0.6,3.2-1.6,6.2-4.9,6.8L48.6,92.7c-3.3,0.6-6.3-1.6-6.9-4.8L31.6,31.7c-0.6-3.2,1.6-6.2,4.9-6.8
	l96.7-16.7c3.3-0.6,6.3,1.6,6.9,4.8L150.3,69.2z"/>
<path class="st2" d="M102.2,74c-0.9,3.1-4.4,5.1-7.6,4.3l-21.4-5.6c-3.2-0.8-5.3-4.3-4.5-7.4L79,27.3c0.9-3.1,4.6-5.2,7.8-4.4
	l21.4,5.6c3.2,0.8,5.1,4.4,4.3,7.5L102.2,74z"/>
</svg>
