<svg version="1.1" xmlns="http://www.w3.org/2000/svg" xmlns:xlink="http://www.w3.org/1999/xlink" x="0px" y="0px"
	 viewBox="0 0 391.2 56.7" xml:space="preserve">
<path fill="#FFFFFF" d="M63.2,40.6V21.4C63.2,16,62.3,9,55.4,9c-2.5,0-5,1.4-6.3,3.4c-1.7,2.5-1.7,6.8-1.7,9.7v18.4h-9.3V1.7h8.6v3.4
	c3.1-3,6.1-4.7,10.6-4.7c4.2,0,8.9,2.1,11.7,5.4c3,3.6,3.5,8.6,3.5,13.2v21.5L63.2,40.6L63.2,40.6z M108.9,40.6v-4.8
	c-3.1,3.6-8.8,6-13.5,6c-11.7,0-18.9-9.9-18.9-20.9c0-11.1,7.9-20.5,19.4-20.5c4.2,0,8.3,1.7,11.5,4.6c0.4,0.4,1.1,1.1,1.4,1.6h0.1
	V1.7h8.5v38.8L108.9,40.6L108.9,40.6z M97.3,9c-6.9,0-11.5,5.7-11.5,12.3c0,6.5,4.9,12,11.5,12c6.9,0,11.3-5.6,11.3-12.3
	C108.7,14.4,104.2,9,97.3,9z M145.3,41.8c-5.2,0-8.3-1.4-12-5v16.6H124V1.8h8.5v4.5h0.1c3.3-4,7.5-5.8,12.5-5.8
	c11.4,0,19.4,9.5,19.4,20.5S156.6,41.8,145.3,41.8L145.3,41.8z M144.3,9c-6.7,0-11.5,5.6-11.5,12.2c0,4.8,2.3,9,6.8,11
	c1.4,0.7,3,1.1,4.5,1.1c6.6,0,11.3-5.8,11.3-12.2C155.4,14.9,150.8,9,144.3,9z"/>
<path fill="#FFFFFF" d="M223.4,41.8c-11.5,0-20.6-9.4-20.6-20.8c0-11.3,9.2-20.5,20.5-20.5c9.1,0,16.7,5.6,19.4,14.2h-10.4
	c-2-3.6-4.7-5.6-9-5.6c-6.9,0-11.2,5.6-11.2,12.2c0,6.7,4.8,12.2,11.7,12.2c3.7,0,6.6-2.2,8.6-5.4h10.4
	C239.7,36.4,232.5,41.8,223.4,41.8z M308.6,25.3h-30.1c0.2,1.1,0.7,1.9,1.2,2.8c2.1,3.3,5.6,5.2,9.4,5.2c3.7,0,7.1-1.5,8.9-5h9.8
	c-2.4,7.8-10.4,13.5-18.6,13.5c-11.6,0-20.5-9-20.5-20.5c0-11.6,8.6-20.8,20.4-20.8c11.3,0,20,8.9,20,20.2
	C309.2,22.2,309,23.8,308.6,25.3L308.6,25.3z M289.4,9c-5.6,0-9.7,3.4-10.9,8.9h21.4C299,12.3,295,9,289.4,9z M351.9,25.3h-30.1
	c0.2,1.1,0.7,1.9,1.2,2.8c2.1,3.3,5.6,5.2,9.4,5.2c3.7,0,7.1-1.5,8.9-5h9.8c-2.5,7.9-10.4,13.5-18.7,13.5c-11.6,0-20.5-9-20.5-20.5
	c0-11.6,8.6-20.8,20.4-20.8c11.3,0,20,8.9,20,20.2C352.5,22.2,352.3,23.8,351.9,25.3L351.9,25.3z M332.5,9c-5.6,0-9.7,3.4-10.9,8.9
	H343C342.1,12.3,338.2,9,332.5,9z M382,40.6V21.4C382,16,381.1,9,374.1,9c-2.5,0-5,1.4-6.3,3.4c-1.7,2.5-1.7,6.8-1.7,9.7v18.4h-9.3
	V1.7h8.6v3.4c3.1-3,6.1-4.7,10.6-4.7c4.2,0,8.9,2.1,11.7,5.4c3,3.6,3.5,8.6,3.5,13.2v21.5L382,40.6L382,40.6z M176.6,27.7
	c0.1,4.8,3.6,6.7,7.5,6.7c2.9,0,6.4-1.2,6.4-5.1c0-3.3-4-4.4-11.1-6.1c-5.6-1.3-11.3-3.6-11.3-10.5C168.1,2.6,176,0,183.6,0
	c7.8,0,14.9,2.9,15.7,12.6H190c-0.3-4.2-3.2-5.4-6.7-5.4c-2.2,0-5.5,0.5-5.5,3.6c0,3.9,5.6,4.4,11.1,5.9c5.7,1.4,11.3,3.7,11.3,11.1
	c0,10.4-8.1,13.8-16.3,13.8s-16.4-3.4-16.8-13.9L176.6,27.7L176.6,27.7z"/>
<path fill="#FFFFFF" d="M9.5,27.7c0.1,4.8,3.6,6.7,7.5,6.7c2.8,0,6.4-1.2,6.4-5.1c0-3.3-4-4.4-11.1-6.1C6.7,21.9,1,19.6,1,12.7
	C1,2.6,8.9,0,16.5,0c7.8,0,14.9,2.9,15.7,12.6h-9.3c-0.3-4.2-3.2-5.4-6.7-5.4c-2.2,0-5.5,0.5-5.5,3.6c0,3.9,5.6,4.4,11.1,5.9
	c5.7,1.4,11.3,3.7,11.3,11.1c0,10.4-8.1,13.8-16.3,13.8S0.4,38.2,0,27.7H9.5L9.5,27.7z"/>
<path fill="#FFFFFF" d="M272.8,2.5c-2.8-1.9-6.6-1.9-6.6-1.9c-6.1,0-9.4,2.8-10.8,6.1V1.5h-8.9v39h9.4V19.4c0-6.6,2.7-9.9,9.3-9.9
	c1,0,2,0.2,2.5,0.5C269.1,7.7,270.9,4.8,272.8,2.5"/>
</svg>
