<svg xmlns="http://www.w3.org/2000/svg" xmlns:xlink="http://www.w3.org/1999/xlink" version="1.1" id="Ebene_1" x="0px" y="0px" viewBox="0 0 566.9 90.7" style="enable-background:new 0 0 566.9 90.7;" xml:space="preserve">
<style type="text/css">
	.st0{fill:#06233D;}
	.st1{fill:#3897F0;}
	.st2{fill-rule:evenodd;clip-rule:evenodd;fill:#06233D;}
	.st3{fill:#FFFFFF;}
</style>
<path class="st0" d="M238.6,59.5V40.3c0-5.4-0.9-12.4-7.9-12.4c-2.5,0-5,1.4-6.3,3.4c-1.7,2.5-1.7,6.8-1.7,9.7v18.4h-9.3V20.6h8.6  v3.4c3.1-3,6.1-4.7,10.6-4.7c4.2,0,8.9,2.1,11.7,5.4c3,3.6,3.5,8.6,3.5,13.2v21.5L238.6,59.5L238.6,59.5z M284.3,59.5v-4.8  c-3.1,3.6-8.8,6-13.5,6c-11.7,0-18.9-9.9-18.9-20.9c0-11.1,7.9-20.5,19.4-20.5c4.2,0,8.3,1.7,11.5,4.6c0.4,0.4,1.1,1.1,1.4,1.6h0.1  v-4.9h8.5v38.8H284.3L284.3,59.5z M272.7,27.9c-6.9,0-11.5,5.7-11.5,12.3c0,6.5,4.9,12,11.5,12c6.9,0,11.3-5.6,11.3-12.3  C284.1,33.3,279.6,27.9,272.7,27.9z M320.7,60.7c-5.2,0-8.3-1.4-12-5v16.6h-9.3V20.7h8.5v4.5h0.1c3.3-4,7.5-5.8,12.5-5.8  c11.4,0,19.4,9.5,19.4,20.5S332,60.7,320.7,60.7L320.7,60.7z M319.7,27.9c-6.7,0-11.5,5.6-11.5,12.2c0,4.8,2.3,9,6.8,11  c1.4,0.7,3,1.1,4.5,1.1c6.6,0,11.3-5.8,11.3-12.2C330.8,33.8,326.2,27.9,319.7,27.9z"/>
<path class="st1" d="M398.9,60.7c-11.5,0-20.6-9.4-20.6-20.8c0-11.3,9.2-20.5,20.5-20.5c9.1,0,16.7,5.6,19.4,14.2h-10.4  c-2-3.6-4.7-5.6-9-5.6c-6.9,0-11.2,5.6-11.2,12.2c0,6.7,4.8,12.2,11.7,12.2c3.7,0,6.6-2.2,8.6-5.4h10.4  C415.2,55.3,408,60.7,398.9,60.7z M484.2,44.2h-30.1c0.2,1.1,0.7,1.9,1.2,2.8c2.1,3.3,5.6,5.2,9.4,5.2c3.7,0,7.1-1.5,8.9-5h9.8  C481,55,473,60.7,464.8,60.7c-11.6,0-20.5-9-20.5-20.5c0-11.6,8.6-20.8,20.4-20.8c11.3,0,20,8.9,20,20.2  C484.8,41.1,484.6,42.7,484.2,44.2L484.2,44.2z M464.9,27.9c-5.6,0-9.7,3.4-10.9,8.9h21.4C474.5,31.2,470.5,27.9,464.9,27.9z   M527.5,44.2h-30.1c0.2,1.1,0.7,1.9,1.2,2.8c2.1,3.3,5.6,5.2,9.4,5.2c3.7,0,7.1-1.5,8.9-5h9.8c-2.5,7.9-10.4,13.5-18.7,13.5  c-11.6,0-20.5-9-20.5-20.5c0-11.6,8.6-20.8,20.4-20.8c11.3,0,20,8.9,20,20.2C528.1,41.1,527.9,42.7,527.5,44.2L527.5,44.2z   M508.1,27.9c-5.6,0-9.7,3.4-10.9,8.9h21.4C517.7,31.2,513.8,27.9,508.1,27.9z M557.6,59.5V40.3c0-5.4-0.9-12.4-7.9-12.4  c-2.5,0-5,1.4-6.3,3.4c-1.7,2.5-1.7,6.8-1.7,9.7v18.4h-9.3V20.6h8.6v3.4c3.1-3,6.1-4.7,10.6-4.7c4.2,0,8.9,2.1,11.7,5.4  c3,3.6,3.5,8.6,3.5,13.2v21.5L557.6,59.5L557.6,59.5z M352,46.6c0.1,4.8,3.6,6.7,7.5,6.7c2.9,0,6.4-1.2,6.4-5.1  c0-3.3-4-4.4-11.1-6.1c-5.6-1.3-11.3-3.6-11.3-10.5c0-10.1,7.9-12.7,15.5-12.7c7.8,0,14.9,2.9,15.7,12.6h-9.3  c-0.3-4.2-3.2-5.4-6.7-5.4c-2.2,0-5.5,0.5-5.5,3.6c0,3.9,5.6,4.4,11.1,5.9c5.7,1.4,11.3,3.7,11.3,11.1c0,10.4-8.1,13.8-16.3,13.8  c-8.2,0-16.4-3.4-16.8-13.9L352,46.6L352,46.6z"/>
<path class="st0" d="M184.8,46.6c0.1,4.8,3.6,6.7,7.5,6.7c2.8,0,6.4-1.2,6.4-5.1c0-3.3-4-4.4-11.1-6.1c-5.6-1.3-11.3-3.6-11.3-10.5  c0-10.1,7.9-12.7,15.5-12.7c7.8,0,14.9,2.9,15.7,12.6h-9.3c-0.3-4.2-3.2-5.4-6.7-5.4c-2.2,0-5.5,0.5-5.5,3.6c0,3.9,5.6,4.4,11.1,5.9  c5.7,1.4,11.3,3.7,11.3,11.1c0,10.4-8.1,13.8-16.3,13.8c-8.2,0-16.4-3.4-16.8-13.9L184.8,46.6L184.8,46.6z"/>
<path class="st1" d="M448.3,21.4c-2.8-1.9-6.6-1.9-6.6-1.9c-6.1,0-9.4,2.8-10.8,6.1v-5.2H422v39h9.4V38.3c0-6.6,2.7-9.9,9.3-9.9  c1,0,2,0.2,2.5,0.5C444.6,26.6,446.4,23.7,448.3,21.4"/>
<g>
	<path class="st2" d="M137.5,0H4.7C2.1,0,0,2.1,0,4.7v71.1c0,2.6,2.1,4.7,4.7,4.7h97.1c0,0.1,0.1,0.1,0.1,0.2l9.9,9.9   c0.3,0.3,0.9,0.3,1.1,0l9.9-9.9c0.1-0.1,0.1-0.1,0.1-0.2h14.5c2.6,0,4.7-2.1,4.7-4.7V4.7C142.1,2.1,140,0,137.5,0z"/>
	<path class="st1" d="M117.7,55.3c0.5,2.6-1.2,5-3.8,5.4L38.1,74.1c-2.6,0.5-5-1.2-5.4-3.8l-7.9-45c-0.5-2.6,1.2-5,3.8-5.4   l75.8-13.3c2.6-0.5,5,1.2,5.4,3.8L117.7,55.3z"/>
	<path class="st3" d="M80.1,59.2c-0.7,2.5-3.4,4.1-5.9,3.4l-16.8-4.5c-2.5-0.7-4.2-3.4-3.5-5.9L62,21.9c0.7-2.5,3.6-4.2,6.1-3.5   l16.8,4.5c2.5,0.7,4,3.5,3.3,6L80.1,59.2L80.1,59.2z"/>
</g>
</svg>
